# xmcd
#
# Track frame offsets:
#	150
#	18489
#	33822
#	49760
#	62687
#	84553
#	108331
#	122976
#	138464
#	147976
#
# Disc length: 2288 seconds
# Revision: 0
# Processed by: cddbd v1.5.2PL0 Copyright (c) Steve Scherf et al.
# Submitted via: dBpowerAMP V12.0
#
DISCID=8808ee0a
DTITLE=Molly Martin - Somewhere Between
DYEAR=2013
DGENRE=Country
TTITLE0=Somewhere Between
TTITLE1=Carry You
TTITLE2=Poorhouse
TTITLE3=Not Tonight
TTITLE4=Honey Pie
TTITLE5=Greyhound
TTITLE6=Lay Me Down
TTITLE7=Slow Bleed
TTITLE8=Tomatoes
TTITLE9=Wrecking Ball
EXTD=
EXTT0=
EXTT1=
EXTT2=
EXTT3=
EXTT4=
EXTT5=
EXTT6=
EXTT7=
EXTT8=
EXTT9=
PLAYORDER=
